<svg width="190" height="36" viewBox="0 0 190 36" fill="none" xmlns="http://www.w3.org/2000/svg">
<path d="M5.544 8.12V19.852L11.62 13.16H16.016L10.22 19.292L16.296 28H12.264L7.868 21.448L5.544 23.94V28H1.96V8.12H5.544ZM23.126 8.12V16.548L22.622 16.66C22.8647 15.3347 23.4154 14.364 24.274 13.748C25.1514 13.132 26.206 12.824 27.438 12.824C28.9687 12.824 30.182 13.3373 31.078 14.364C31.9927 15.3907 32.45 16.7533 32.45 18.452V28H28.866V19.74C28.866 18.4147 28.6607 17.4347 28.25 16.8C27.8394 16.1653 27.1767 15.848 26.262 15.848C25.2727 15.848 24.498 16.184 23.938 16.856C23.3967 17.528 23.126 18.4893 23.126 19.74V28H19.542V8.12H23.126ZM35.4703 17.696C35.769 16.1467 36.4876 14.952 37.6263 14.112C38.7836 13.2533 40.277 12.824 42.1063 12.824C44.2343 12.824 45.849 13.3653 46.9503 14.448C48.0703 15.5307 48.6303 17.1173 48.6303 19.208V24.304C48.6303 24.7147 48.705 25.004 48.8543 25.172C49.0223 25.3213 49.2556 25.396 49.5543 25.396H50.1423V28L49.3023 28.028H48.9943C48.1356 28.0653 47.3703 27.9347 46.6983 27.636C46.0263 27.3187 45.6343 26.684 45.5223 25.732C45.149 26.516 44.533 27.1507 43.6743 27.636C42.8343 28.1027 41.7983 28.336 40.5663 28.336C39.0356 28.336 37.757 27.9533 36.7303 27.188C35.7223 26.4227 35.2183 25.396 35.2183 24.108C35.2183 23.1747 35.433 22.4187 35.8623 21.84C36.3103 21.2613 36.9356 20.8133 37.7383 20.496C38.541 20.16 39.5863 19.8613 40.8743 19.6L45.0183 18.788C45.0183 17.6307 44.7756 16.7813 44.2903 16.24C43.805 15.68 43.077 15.4 42.1063 15.4C41.3036 15.4 40.6503 15.6147 40.1463 16.044C39.6423 16.4547 39.3063 17.0707 39.1383 17.892L35.4703 17.696ZM38.9423 23.996C38.9423 24.5373 39.1663 24.976 39.6143 25.312C40.0623 25.648 40.7063 25.816 41.5463 25.816C42.237 25.816 42.8436 25.648 43.3663 25.312C43.9076 24.976 44.3276 24.4813 44.6263 23.828C44.9436 23.156 45.1023 22.3533 45.1023 21.42V21.224L42.2743 21.728C42.1436 21.7467 42.0036 21.7653 41.8543 21.784C41.1823 21.9147 40.641 22.0547 40.2303 22.204C39.8383 22.3347 39.521 22.5493 39.2783 22.848C39.0543 23.128 38.9423 23.5107 38.9423 23.996ZM56.5401 8.12V24.136C56.5401 24.472 56.6334 24.7427 56.8201 24.948C57.0254 25.1347 57.2961 25.228 57.6321 25.228H58.7521V28H56.7081C55.5694 28 54.6548 27.6733 53.9641 27.02C53.2921 26.348 52.9561 25.4333 52.9561 24.276V8.12H56.5401ZM71.4547 8.12H75.0387V28H71.6227L71.5387 25.872C71.1094 26.6373 70.4934 27.244 69.6907 27.692C68.888 28.1213 67.9827 28.336 66.9747 28.336C65.7054 28.336 64.5947 28.0187 63.6427 27.384C62.6907 26.7493 61.9627 25.8533 61.4587 24.696C60.9547 23.52 60.7027 22.148 60.7027 20.58C60.7027 19.012 60.9547 17.6493 61.4587 16.492C61.9627 15.316 62.6907 14.4107 63.6427 13.776C64.5947 13.1413 65.7054 12.824 66.9747 12.824C67.9454 12.824 68.8227 13.0387 69.6067 13.468C70.3907 13.8787 71.0067 14.448 71.4547 15.176V8.12ZM71.2307 23.156C71.5294 22.428 71.6787 21.5693 71.6787 20.58C71.6787 19.572 71.5294 18.6947 71.2307 17.948C70.932 17.2013 70.5027 16.632 69.9427 16.24C69.4014 15.8293 68.7667 15.624 68.0387 15.624C66.9187 15.624 66.032 16.072 65.3787 16.968C64.7254 17.864 64.3987 19.068 64.3987 20.58C64.3987 22.0547 64.7254 23.24 65.3787 24.136C66.0507 25.0133 66.9374 25.452 68.0387 25.452C68.7667 25.452 69.4014 25.256 69.9427 24.864C70.5027 24.4533 70.932 23.884 71.2307 23.156ZM85.43 28.336C83.9553 28.336 82.6673 28.0187 81.566 27.384C80.4646 26.7493 79.606 25.8533 78.99 24.696C78.374 23.52 78.066 22.148 78.066 20.58C78.066 19.012 78.374 17.6493 78.99 16.492C79.606 15.316 80.4646 14.4107 81.566 13.776C82.6673 13.1413 83.9553 12.824 85.43 12.824C86.886 12.824 88.1646 13.1413 89.266 13.776C90.386 14.4107 91.2446 15.316 91.842 16.492C92.458 17.6493 92.766 19.012 92.766 20.58C92.766 22.148 92.458 23.52 91.842 24.696C91.2446 25.8533 90.386 26.7493 89.266 27.384C88.1646 28.0187 86.886 28.336 85.43 28.336ZM85.43 25.424C86.5873 25.424 87.4833 25.004 88.118 24.164C88.7526 23.3053 89.07 22.1107 89.07 20.58C89.07 19.0493 88.7526 17.864 88.118 17.024C87.4833 16.1653 86.5873 15.736 85.43 15.736C84.2726 15.736 83.3766 16.156 82.742 16.996C82.1073 17.836 81.79 19.0307 81.79 20.58C81.79 22.1293 82.1073 23.324 82.742 24.164C83.3766 25.004 84.2726 25.424 85.43 25.424ZM102.438 28.336C100.963 28.336 99.6751 28.0187 98.5738 27.384C97.4724 26.7493 96.6138 25.8533 95.9978 24.696C95.3818 23.52 95.0738 22.148 95.0738 20.58C95.0738 19.012 95.3818 17.6493 95.9978 16.492C96.6138 15.316 97.4724 14.4107 98.5738 13.776C99.6751 13.1413 100.963 12.824 102.438 12.824C103.894 12.824 105.172 13.1413 106.274 13.776C107.394 14.4107 108.252 15.316 108.85 16.492C109.466 17.6493 109.774 19.012 109.774 20.58C109.774 22.148 109.466 23.52 108.85 24.696C108.252 25.8533 107.394 26.7493 106.274 27.384C105.172 28.0187 103.894 28.336 102.438 28.336ZM102.438 25.424C103.595 25.424 104.491 25.004 105.126 24.164C105.76 23.3053 106.078 22.1107 106.078 20.58C106.078 19.0493 105.76 17.864 105.126 17.024C104.491 16.1653 103.595 15.736 102.438 15.736C101.28 15.736 100.384 16.156 99.7498 16.996C99.1151 17.836 98.7978 19.0307 98.7978 20.58C98.7978 22.1293 99.1151 23.324 99.7498 24.164C100.384 25.004 101.28 25.424 102.438 25.424ZM115.923 13.16L116.091 17.332L115.643 17.108C115.848 15.6333 116.38 14.5507 117.239 13.86C118.116 13.1693 119.199 12.824 120.487 12.824C122.092 12.824 123.343 13.3373 124.239 14.364C125.135 15.372 125.583 16.7347 125.583 18.452V28H121.971V19.6C121.971 18.2933 121.775 17.3227 121.383 16.688C120.991 16.0533 120.328 15.736 119.395 15.736C118.406 15.736 117.631 16.072 117.071 16.744C116.53 17.3973 116.259 18.3493 116.259 19.6V28H112.675V13.16H115.923Z" fill="#F8FAFC"/>
<circle cx="134" cy="24" r="4" fill="url(#paint0_linear_166_1073)"/>
<path d="M151.9 8.12H155.484V28H152.068L151.984 25.872C151.555 26.6373 150.939 27.244 150.136 27.692C149.333 28.1213 148.428 28.336 147.42 28.336C146.151 28.336 145.04 28.0187 144.088 27.384C143.136 26.7493 142.408 25.8533 141.904 24.696C141.4 23.52 141.148 22.148 141.148 20.58C141.148 19.012 141.4 17.6493 141.904 16.492C142.408 15.316 143.136 14.4107 144.088 13.776C145.04 13.1413 146.151 12.824 147.42 12.824C148.391 12.824 149.268 13.0387 150.052 13.468C150.836 13.8787 151.452 14.448 151.9 15.176V8.12ZM151.676 23.156C151.975 22.428 152.124 21.5693 152.124 20.58C152.124 19.572 151.975 18.6947 151.676 17.948C151.377 17.2013 150.948 16.632 150.388 16.24C149.847 15.8293 149.212 15.624 148.484 15.624C147.364 15.624 146.477 16.072 145.824 16.968C145.171 17.864 144.844 19.068 144.844 20.58C144.844 22.0547 145.171 23.24 145.824 24.136C146.496 25.0133 147.383 25.452 148.484 25.452C149.212 25.452 149.847 25.256 150.388 24.864C150.948 24.4533 151.377 23.884 151.676 23.156ZM158.511 20.58C158.511 19.0307 158.819 17.668 159.435 16.492C160.051 15.316 160.91 14.4107 162.011 13.776C163.113 13.1413 164.401 12.824 165.875 12.824C167.182 12.824 168.358 13.1227 169.403 13.72C170.449 14.3173 171.279 15.204 171.895 16.38C172.511 17.556 172.829 18.9933 172.847 20.692V21.56H162.291C162.366 22.792 162.711 23.7627 163.327 24.472C163.962 25.1627 164.811 25.508 165.875 25.508C166.547 25.508 167.163 25.3213 167.723 24.948C168.283 24.5747 168.703 24.0707 168.983 23.436L172.651 23.716C172.203 25.116 171.363 26.236 170.131 27.076C168.899 27.916 167.481 28.336 165.875 28.336C164.401 28.336 163.113 28.0187 162.011 27.384C160.91 26.7493 160.051 25.844 159.435 24.668C158.819 23.492 158.511 22.1293 158.511 20.58ZM169.151 19.18C169.021 17.9667 168.657 17.08 168.059 16.52C167.462 15.9413 166.734 15.652 165.875 15.652C164.886 15.652 164.083 15.96 163.467 16.576C162.851 17.192 162.469 18.06 162.319 19.18H169.151ZM183.527 28H179.299L173.839 13.16H177.535L181.399 24.36L185.263 13.16H189.015L183.527 28Z" fill="#F8FAFC"/>
<defs>
<linearGradient id="paint0_linear_166_1073" x1="138" y1="28" x2="130" y2="20" gradientUnits="userSpaceOnUse">
<stop stop-color="#6366F1"/>
<stop offset="1" stop-color="#A5B4FC"/>
</linearGradient>
</defs>
</svg>
